<?xml version="1.0" encoding="iso-8859-1"?>
<!-- Generator: Adobe Illustrator 19.0.0, SVG Export Plug-In . SVG Version: 6.00 Build 0)  -->
<svg version="1.1" id="Capa_1" xmlns="http://www.w3.org/2000/svg" xmlns:xlink="http://www.w3.org/1999/xlink" x="0px" y="0px"
	 viewBox="0 0 512 512" style="enable-background:new 0 0 512 512;" xml:space="preserve">
<g>
	<g>
		<path d="M0,12.05v353.6h132V12.05H0z M76,302.95H46.3v-29.7H76V302.95z"/>
	</g>
</g>
<g>
	<g>
		<path d="M488.6,242.45c7.2-9.2,11.6-20.7,11.6-33.2c0-18.4-9.3-34.6-23.4-44.3c7.2-9.2,11.6-20.7,11.6-33.3
			c0-18.4-9.3-34.6-23.3-44.3c7.2-9.2,11.5-20.7,11.5-33.2c0-29.7-24.1-53.8-53.8-53.8H289.3c-28.4,0-56.2,5.1-82.8,15L162,31.95
			v289.1c46.8,50.4,88.7,97.6,96.4,110v59c0,11.9,9.7,21.6,21.6,21.6c49,0,88.9-39.9,88.9-88.9v-26.6l-16.1-55.5h105.4
			c29.7,0,53.8-24.1,53.8-53.8C512,268.35,502.7,252.15,488.6,242.45z"/>
	</g>
</g>
<g>
</g>
<g>
</g>
<g>
</g>
<g>
</g>
<g>
</g>
<g>
</g>
<g>
</g>
<g>
</g>
<g>
</g>
<g>
</g>
<g>
</g>
<g>
</g>
<g>
</g>
<g>
</g>
<g>
</g>
</svg>
