<?xml version="1.0" encoding="iso-8859-1"?>
<!-- Generator: Adobe Illustrator 16.0.0, SVG Export Plug-In . SVG Version: 6.00 Build 0)  -->
<!DOCTYPE svg PUBLIC "-//W3C//DTD SVG 1.1//EN" "http://www.w3.org/Graphics/SVG/1.1/DTD/svg11.dtd">
<svg version="1.1" id="Capa_1" xmlns="http://www.w3.org/2000/svg" xmlns:xlink="http://www.w3.org/1999/xlink" x="0px" y="0px"
	 width="30.607px" height="30.607px" viewBox="0 0 30.607 30.607" style="enable-background:new 0 0 30.607 30.607;"
	 xml:space="preserve">
<g>
	<g>
		<path d="M30.607,6.343c0-1.433-1.256-2.598-2.801-2.602c-0.185-1.271-1.363-2.253-2.785-2.253c-0.521,0-1.023,0.132-1.467,0.385
			c-0.49-0.354-1.092-0.545-1.717-0.545c-1.055,0-2.02,0.556-2.495,1.411c-0.239-0.062-0.487-0.092-0.737-0.092
			c-1.551,0-2.811,1.167-2.811,2.602c0,0.102,0.008,0.205,0.02,0.306c-0.605,0.494-0.949,1.192-0.949,1.948
			c0,1.071,0.694,2.016,1.752,2.412c0.248,1.22,1.394,2.114,2.759,2.114c0.459,0,0.907-0.104,1.311-0.301
			c0.49,0.348,1.086,0.538,1.705,0.538c0.84,0,1.623-0.344,2.154-0.933c0.362,0.151,0.755,0.229,1.15,0.229
			c1.548,0,2.808-1.166,2.808-2.603c0-0.032,0-0.066-0.002-0.1C29.725,8.568,30.607,7.537,30.607,6.343z M28.077,8.229l-0.369,0.044
			l0.067,0.365c0.021,0.116,0.033,0.221,0.033,0.321c0,1.051-0.947,1.905-2.111,1.905c-0.381,0-0.754-0.094-1.084-0.271l-0.27-0.146
			l-0.179,0.25c-0.392,0.545-1.054,0.872-1.772,0.872c-0.535,0-1.05-0.185-1.444-0.521l-0.19-0.162l-0.214,0.128
			c-0.349,0.208-0.751,0.318-1.166,0.318c-1.092,0-1.995-0.739-2.101-1.718l-0.024-0.232l-0.226-0.066
			c-0.875-0.254-1.463-0.982-1.463-1.813c0-0.596,0.302-1.146,0.831-1.511l0.192-0.134l-0.051-0.229
			c-0.029-0.124-0.043-0.251-0.043-0.379c0-1.051,0.946-1.905,2.112-1.905c0.273,0,0.545,0.049,0.801,0.143l0.32,0.119l0.125-0.316
			c0.299-0.757,1.099-1.266,1.986-1.266c0.549,0,1.068,0.191,1.467,0.538l0.204,0.18l0.224-0.156c0.375-0.263,0.819-0.4,1.289-0.4
			c1.166,0,2.112,0.854,2.113,1.886l-0.002,0.433l0.391-0.046c0.09-0.013,0.183-0.02,0.274-0.02c1.165,0,2.112,0.855,2.112,1.905
			C29.911,7.294,29.122,8.104,28.077,8.229z"/>
		<path d="M17.477,15.993c1.135,0,2.057-0.772,2.057-1.721c0-0.948-0.922-1.72-2.057-1.72c-1.133,0-2.054,0.772-2.054,1.72
			C15.423,15.221,16.344,15.993,17.477,15.993z M17.477,13.248c0.75,0,1.358,0.46,1.358,1.024c0,0.565-0.608,1.024-1.358,1.024
			c-0.746,0-1.355-0.459-1.355-1.024C16.12,13.708,16.729,13.248,17.477,13.248z"/>
		<path d="M13.112,17.39c0,0.713,0.684,1.293,1.523,1.293c0.839,0,1.523-0.58,1.523-1.293c0-0.711-0.684-1.291-1.523-1.291
			C13.796,16.099,13.112,16.679,13.112,17.39z M15.462,17.39c0,0.326-0.379,0.597-0.826,0.597c-0.448,0-0.825-0.271-0.825-0.597
			c0-0.322,0.377-0.594,0.825-0.594C15.083,16.796,15.462,17.067,15.462,17.39z"/>
		<path d="M1.142,5.589l3.396,10.519l3.316,4.068l0.673-5.27L5.12,4.303l0.007-0.001L4.031,0.907L0.039,2.195L1.135,5.59
			L1.142,5.589z M6.116,16.283l0.266-1.108l0.944,0.716l0.697-1.336L8.134,14.9l-0.387,3.008L6.76,18.228l-1.862-2.274l-0.154-0.48
			L6.116,16.283z M3.527,1.891l0.407,1.257L1.429,3.956L1.022,2.7L3.527,1.891z"/>
		<path d="M20.507,15.8v-1.345l-0.192-0.078c-0.015-0.004-0.088-0.031-0.189-0.066c-0.001,0.305-0.084,0.592-0.229,0.854v12.184
			c-0.867-0.348-1.863-0.523-2.967-0.523c-2.706,0-5.282,1.037-6.056,1.378V23.25l0.36,0.397v-7.441
			c1.043-0.876,2.256-1.441,3.622-1.696c-0.008-0.068-0.027-0.135-0.027-0.206c0-0.146,0.02-0.29,0.054-0.428
			c-1.557,0.261-2.935,0.899-4.111,1.908c-0.525-0.45-1.094-0.821-1.698-1.123l0.021,0.706c0.427,0.239,0.834,0.517,1.216,0.838
			v7.441l0.36-0.397v4.96c-0.786-0.323-3.491-1.352-6.198-1.352c-1.069,0-2.019,0.164-2.825,0.489V14.88
			c0.279-0.094,0.849-0.261,1.592-0.383l-0.154-0.594c-1.091,0.185-1.813,0.458-1.855,0.475l-0.194,0.077v1.246
			C0.396,15.821,0,16.034,0,16.384C0,18.2,0,29.222,0,29.222h9.455c0.327,0.293,0.805,0.479,1.339,0.479
			c0.535,0,1.014-0.186,1.341-0.479h9.217c0,0,0-12.2,0-12.838C21.352,16.099,21.029,15.914,20.507,15.8z"/>
	</g>
</g>
<g>
</g>
<g>
</g>
<g>
</g>
<g>
</g>
<g>
</g>
<g>
</g>
<g>
</g>
<g>
</g>
<g>
</g>
<g>
</g>
<g>
</g>
<g>
</g>
<g>
</g>
<g>
</g>
<g>
</g>
</svg>
